<?xml version="1.0" encoding="utf-8"?>
<!-- Generator: Adobe Illustrator 27.5.0, SVG Export Plug-In . SVG Version: 6.00 Build 0)  -->
<svg version="1.1" xmlns="http://www.w3.org/2000/svg" xmlns:xlink="http://www.w3.org/1999/xlink"
	x="0px" y="0px"
	viewBox="0 0 750 500" style="enable-background:new 0 0 750 500;" xml:space="preserve">
<g id="Background_Complete">
	<g>
		<path style="fill:#EBEBEB;" d="M225.784,141.086H99.145V54.447h126.639V141.086z M100.145,140.086h124.639V55.447H100.145V140.086
			z"/>
		<g>
			<path style="fill:#A6A6A6;" d="M109.047,60.028c0,1.392-1.129,2.521-2.521,2.521c-1.392,0-2.521-1.128-2.521-2.521
				c0-1.392,1.128-2.521,2.521-2.521C107.918,57.508,109.047,58.636,109.047,60.028z"/>
			<path style="fill:#EBEBEB;" d="M119.339,60.028c0,1.392-1.128,2.521-2.521,2.521s-2.521-1.128-2.521-2.521
				c0-1.392,1.128-2.521,2.521-2.521S119.339,58.636,119.339,60.028z"/>
			<path style="fill:#FFC727;" d="M129.632,60.028c0,1.392-1.128,2.521-2.521,2.521c-1.392,0-2.521-1.128-2.521-2.521
				c0-1.392,1.129-2.521,2.521-2.521C128.503,57.508,129.632,58.636,129.632,60.028z"/>
		</g>
		<rect x="99.645" y="64.466" style="fill:#EBEBEB;" width="125.639" height="1"/>
	</g>
	<g>
		<path style="fill:#EBEBEB;" d="M682.372,294.224l-13.125,0.279l-6.661,0.112c-2.226,0.047-4.463,0.037-6.695,0.055l-0.444,0.003
			l-0.002-0.449l-0.054-11.19l-0.003-0.502l0.502,0.002l13.24,0.063c4.413,0.005,8.827,0.112,13.24,0.164l0.276,0.003l-0.003,0.27
			c-0.019,1.899-0.086,3.787-0.131,5.654L682.372,294.224z M682.372,294.224l-0.142-5.654c-0.045-1.863-0.112-3.705-0.131-5.536
			l0.273,0.273c-4.413,0.051-8.827,0.159-13.24,0.164l-13.24,0.063l0.499-0.499l-0.054,11.19l-0.446-0.446
			c2.182,0.018,4.358,0.008,6.546,0.055l6.579,0.112L682.372,294.224z"/>
		<path style="fill:#EBEBEB;" d="M667.6,308.334l-13.125,0.279l-6.661,0.112c-2.226,0.047-4.463,0.037-6.695,0.055l-0.444,0.004
			l-0.002-0.449l-0.054-11.19l-0.002-0.502l0.502,0.002l13.24,0.063c4.413,0.005,8.827,0.112,13.24,0.164l0.276,0.003l-0.003,0.27
			c-0.019,1.899-0.086,3.787-0.131,5.654L667.6,308.334z M667.6,308.334l-0.142-5.654c-0.045-1.863-0.112-3.705-0.131-5.536
			l0.273,0.273c-4.413,0.051-8.827,0.159-13.24,0.164l-13.24,0.063l0.499-0.499l-0.054,11.19l-0.446-0.446
			c2.182,0.018,4.358,0.008,6.546,0.055l6.579,0.112L667.6,308.334z"/>
		<path style="fill:#EBEBEB;" d="M697.144,308.334l-13.125,0.279l-6.661,0.112c-2.226,0.047-4.463,0.037-6.695,0.055l-0.444,0.004
			l-0.002-0.449l-0.054-11.19l-0.002-0.502l0.502,0.002l13.24,0.063c4.413,0.005,8.827,0.112,13.24,0.164l0.276,0.003l-0.003,0.27
			c-0.019,1.899-0.086,3.787-0.131,5.654L697.144,308.334z M697.144,308.334l-0.142-5.654c-0.045-1.863-0.112-3.705-0.131-5.536
			l0.273,0.273c-4.413,0.051-8.827,0.159-13.24,0.164l-13.24,0.063l0.499-0.499l-0.054,11.19l-0.446-0.446
			c2.182,0.018,4.358,0.008,6.546,0.055l6.579,0.112L697.144,308.334z"/>
		<path style="fill:#EBEBEB;" d="M324.792,161.067l-13.125,0.279l-6.661,0.112c-2.226,0.047-4.463,0.037-6.695,0.055l-0.444,0.004
			l-0.002-0.449l-0.054-11.19l-0.002-0.502l0.502,0.002l13.24,0.063c4.413,0.005,8.827,0.113,13.24,0.164l0.276,0.003l-0.003,0.27
			c-0.019,1.899-0.086,3.787-0.131,5.654L324.792,161.067z M324.792,161.067l-0.142-5.654c-0.045-1.863-0.112-3.705-0.131-5.536
			l0.273,0.273c-4.413,0.051-8.827,0.159-13.24,0.164l-13.24,0.063l0.499-0.499l-0.054,11.19l-0.446-0.446
			c2.182,0.018,4.358,0.008,6.546,0.055l6.579,0.112L324.792,161.067z"/>
		<path style="fill:#EBEBEB;" d="M310.021,175.177l-13.125,0.279l-6.661,0.112c-2.226,0.047-4.463,0.037-6.695,0.055l-0.444,0.004
			l-0.002-0.449l-0.054-11.19l-0.002-0.502l0.502,0.002l13.24,0.063c4.413,0.005,8.827,0.113,13.24,0.164l0.276,0.003l-0.003,0.27
			c-0.019,1.899-0.086,3.787-0.131,5.654L310.021,175.177z M310.021,175.177l-0.142-5.654c-0.045-1.863-0.112-3.705-0.131-5.536
			l0.273,0.273c-4.413,0.051-8.827,0.159-13.24,0.164l-13.24,0.063l0.499-0.499l-0.054,11.19l-0.446-0.446
			c2.182,0.018,4.358,0.008,6.546,0.055l6.579,0.112L310.021,175.177z"/>
		<path style="fill:#EBEBEB;" d="M339.564,175.177l-13.125,0.279l-6.661,0.112c-2.226,0.047-4.463,0.037-6.695,0.055l-0.444,0.004
			l-0.002-0.449l-0.054-11.19l-0.002-0.502l0.502,0.002l13.24,0.063c4.413,0.005,8.827,0.113,13.24,0.164l0.276,0.003l-0.003,0.27
			c-0.019,1.899-0.086,3.787-0.131,5.654L339.564,175.177z M339.564,175.177l-0.142-5.654c-0.045-1.863-0.112-3.705-0.131-5.536
			l0.273,0.273c-4.413,0.051-8.827,0.159-13.24,0.164l-13.24,0.063l0.499-0.499l-0.054,11.19l-0.446-0.446
			c2.182,0.018,4.358,0.008,6.546,0.055l6.579,0.112L339.564,175.177z"/>
		<path style="fill:#EBEBEB;" d="M82.4,330.886l-13.125,0.279l-6.661,0.112c-2.226,0.047-4.463,0.037-6.695,0.055l-0.444,0.004
			l-0.002-0.449l-0.054-11.19l-0.002-0.502l0.502,0.002l13.24,0.063c4.413,0.005,8.827,0.113,13.24,0.164l0.276,0.003l-0.003,0.27
			c-0.019,1.899-0.086,3.787-0.131,5.654L82.4,330.886z M82.4,330.886l-0.142-5.654c-0.045-1.863-0.112-3.705-0.131-5.536
			l0.273,0.273c-4.413,0.051-8.827,0.159-13.24,0.164l-13.24,0.063l0.499-0.499l-0.054,11.19l-0.446-0.446
			c2.182,0.018,4.358,0.008,6.546,0.055l6.579,0.112L82.4,330.886z"/>
		<path style="fill:#EBEBEB;" d="M547.862,161.059l-13.125,0.279l-6.661,0.112c-2.226,0.047-4.463,0.037-6.695,0.055l-0.444,0.003
			l-0.002-0.449l-0.054-11.19l-0.002-0.502l0.502,0.002l13.24,0.063c4.413,0.005,8.827,0.113,13.24,0.164l0.276,0.003l-0.003,0.27
			c-0.019,1.899-0.086,3.787-0.131,5.654L547.862,161.059z M547.862,161.059l-0.142-5.654c-0.045-1.863-0.112-3.705-0.131-5.536
			l0.273,0.273c-4.413,0.051-8.827,0.159-13.24,0.164l-13.24,0.063l0.499-0.499l-0.054,11.19l-0.446-0.446
			c2.182,0.018,4.358,0.008,6.546,0.055l6.579,0.112L547.862,161.059z"/>
		<path style="fill:#EBEBEB;" d="M680.841,52.38l-13.125,0.279l-6.661,0.112c-2.226,0.047-4.463,0.037-6.695,0.055l-0.444,0.004
			l-0.002-0.449l-0.054-11.19l-0.002-0.502l0.502,0.002l13.24,0.063c4.413,0.005,8.827,0.112,13.24,0.164l0.276,0.003l-0.003,0.27
			c-0.019,1.899-0.086,3.787-0.131,5.654L680.841,52.38z M680.841,52.38l-0.142-5.654c-0.045-1.863-0.112-3.705-0.131-5.536
			l0.273,0.273c-4.413,0.051-8.827,0.159-13.24,0.164l-13.24,0.063l0.499-0.499l-0.054,11.19l-0.446-0.446
			c2.182,0.018,4.358,0.008,6.546,0.055l6.579,0.112L680.841,52.38z"/>
		<path style="fill:#EBEBEB;" d="M695.612,66.489l-13.125,0.279l-6.661,0.112c-2.226,0.047-4.463,0.037-6.695,0.055l-0.444,0.004
			l-0.002-0.449l-0.054-11.19l-0.003-0.502l0.502,0.002l13.24,0.063c4.413,0.005,8.827,0.112,13.24,0.164l0.276,0.003l-0.003,0.27
			c-0.019,1.899-0.086,3.787-0.131,5.654L695.612,66.489z M695.612,66.489l-0.142-5.654c-0.045-1.863-0.112-3.705-0.131-5.536
			l0.273,0.273c-4.413,0.051-8.827,0.159-13.24,0.164l-13.24,0.063l0.499-0.499l-0.054,11.19l-0.446-0.446
			c2.182,0.018,4.358,0.008,6.546,0.055l6.579,0.112L695.612,66.489z"/>
		<path style="fill:#EBEBEB;" d="M79.337,52.391L66.212,52.67l-6.661,0.112c-2.226,0.047-4.463,0.037-6.695,0.055l-0.444,0.003
			l-0.002-0.449l-0.054-11.19L52.354,40.7l0.502,0.002l13.24,0.063c4.413,0.005,8.827,0.113,13.24,0.164l0.276,0.003l-0.003,0.27
			c-0.019,1.899-0.086,3.787-0.131,5.654L79.337,52.391z M79.337,52.391l-0.142-5.654c-0.045-1.863-0.112-3.705-0.131-5.536
			l0.273,0.273c-4.413,0.051-8.827,0.159-13.24,0.164l-13.24,0.063l0.499-0.499l-0.054,11.19l-0.446-0.446
			c2.182,0.018,4.358,0.008,6.546,0.055l6.579,0.112L79.337,52.391z"/>
	</g>
	<g>
		<g>
			<g>
				<polygon style="fill:#EBEBEB;" points="154.836,286.324 85.156,304.545 61.766,215.098 113.503,201.569 131.445,196.877 
					135.902,213.921 				"/>
				<g>
					
						<rect x="71.834" y="220.869" transform="matrix(-0.9675 0.253 -0.253 -0.9675 255.2267 411.2922)" style="fill:#DBDBDB;" width="58.671" height="2.374"/>
				</g>
				<g>
					
						<rect x="73.35" y="226.666" transform="matrix(-0.9675 0.253 -0.253 -0.9675 259.6756 422.315)" style="fill:#DBDBDB;" width="58.671" height="2.374"/>
				</g>
				<g>
					
						<rect x="74.866" y="232.463" transform="matrix(-0.9675 0.253 -0.253 -0.9675 264.1254 433.3371)" style="fill:#DBDBDB;" width="58.671" height="2.374"/>
				</g>
				<g>
					
						<rect x="76.382" y="238.261" transform="matrix(-0.9675 0.253 -0.253 -0.9675 268.5749 444.3597)" style="fill:#DBDBDB;" width="58.671" height="2.374"/>
				</g>
				<g>
					
						<rect x="77.898" y="244.058" transform="matrix(-0.9675 0.253 -0.253 -0.9675 273.0235 455.3829)" style="fill:#DBDBDB;" width="58.671" height="2.374"/>
				</g>
				<g>
					
						<rect x="79.414" y="249.855" transform="matrix(-0.9675 0.253 -0.253 -0.9675 277.4734 466.405)" style="fill:#DBDBDB;" width="58.671" height="2.374"/>
				</g>
				<g>
					
						<rect x="80.93" y="255.652" transform="matrix(-0.9675 0.253 -0.253 -0.9675 281.9225 477.4277)" style="fill:#DBDBDB;" width="58.671" height="2.374"/>
				</g>
				<g>
					
						<rect x="82.446" y="261.45" transform="matrix(-0.9675 0.253 -0.253 -0.9675 286.3717 488.4505)" style="fill:#DBDBDB;" width="58.671" height="2.374"/>
				</g>
				<g>
					
						<rect x="83.962" y="267.247" transform="matrix(-0.9675 0.253 -0.253 -0.9675 290.8211 499.473)" style="fill:#DBDBDB;" width="58.671" height="2.374"/>
				</g>
				<g>
					
						<rect x="85.478" y="273.045" transform="matrix(-0.9675 0.253 -0.253 -0.9675 295.2708 510.4953)" style="fill:#DBDBDB;" width="58.671" height="2.374"/>
				</g>
				<g>
					
						<rect x="86.994" y="278.842" transform="matrix(-0.9675 0.253 -0.253 -0.9675 299.7197 521.5181)" style="fill:#DBDBDB;" width="58.671" height="2.374"/>
				</g>
				<g>
					
						<rect x="88.51" y="284.639" transform="matrix(-0.9675 0.253 -0.253 -0.9675 304.1686 532.541)" style="fill:#DBDBDB;" width="58.671" height="2.374"/>
				</g>
			</g>
			<g>
				<polygon style="fill:#EBEBEB;" points="173.34,312.131 101.43,316.154 96.265,223.844 149.658,220.857 169.159,237.41 				"/>
				<polygon style="fill:#DBDBDB;" points="149.658,220.857 169.159,237.41 150.642,238.446 				"/>
				<g>
					
						<rect x="104.182" y="237.82" transform="matrix(-0.9984 0.0559 -0.0559 -0.9984 261.5667 470.702)" style="fill:#DBDBDB;" width="40.044" height="2.374"/>
				</g>
				<g>
					
						<rect x="104.517" y="243.803" transform="matrix(-0.9984 0.0559 -0.0559 -0.9984 262.57 482.6397)" style="fill:#DBDBDB;" width="40.044" height="2.374"/>
				</g>
				<g>
					
						<rect x="104.852" y="249.786" transform="matrix(-0.9984 0.0559 -0.0559 -0.9984 263.5732 494.5775)" style="fill:#DBDBDB;" width="40.044" height="2.374"/>
				</g>
				<g>
					
						<rect x="105.172" y="255.248" transform="matrix(-0.9984 0.0559 -0.0559 -0.9984 283.1313 504.9557)" style="fill:#DBDBDB;" width="58.671" height="2.374"/>
				</g>
				<g>
					
						<rect x="105.507" y="261.231" transform="matrix(-0.9984 0.0559 -0.0559 -0.9984 284.1351 516.8933)" style="fill:#DBDBDB;" width="58.671" height="2.374"/>
				</g>
				<g>
					
						<rect x="105.842" y="267.214" transform="matrix(-0.9984 0.0559 -0.0559 -0.9984 285.1384 528.8312)" style="fill:#DBDBDB;" width="58.671" height="2.374"/>
				</g>
				<g>
					
						<rect x="106.176" y="273.197" transform="matrix(-0.9984 0.0559 -0.0559 -0.9984 286.1413 540.7691)" style="fill:#DBDBDB;" width="58.671" height="2.374"/>
				</g>
				<g>
					
						<rect x="106.511" y="279.18" transform="matrix(-0.9984 0.0559 -0.0559 -0.9984 287.1445 552.7069)" style="fill:#DBDBDB;" width="58.671" height="2.374"/>
				</g>
				<g>
					
						<rect x="106.846" y="285.163" transform="matrix(-0.9984 0.0559 -0.0559 -0.9984 288.1483 564.6445)" style="fill:#DBDBDB;" width="58.671" height="2.374"/>
				</g>
				<g>
					
						<rect x="107.181" y="291.146" transform="matrix(-0.9984 0.0559 -0.0559 -0.9984 289.1516 576.5823)" style="fill:#DBDBDB;" width="58.671" height="2.374"/>
				</g>
				<g>
					
						<rect x="107.515" y="297.129" transform="matrix(-0.9984 0.0559 -0.0559 -0.9984 290.1544 588.5203)" style="fill:#DBDBDB;" width="58.671" height="2.374"/>
				</g>
				<g>
					
						<rect x="107.85" y="303.112" transform="matrix(-0.9984 0.0559 -0.0559 -0.9984 291.1577 600.4581)" style="fill:#DBDBDB;" width="58.671" height="2.374"/>
				</g>
			</g>
		</g>
		<g>
			<g>
				<g>
					<polygon style="fill:#EBEBEB;" points="579.427,124.61 648.412,175.384 682.319,129.209 613.335,78.435 					"/>
					<polygon style="fill:#FFFFFF;" points="584.405,123.845 647.662,170.403 677.341,129.974 614.083,83.416 					"/>
					<path style="fill:#DBDBDB;" d="M610.565,100.241c-2.798,3.801-1.984,9.15,1.817,11.948c3.801,2.798,9.151,1.984,11.949-1.817
						c2.798-3.801,1.984-9.151-1.817-11.949C618.712,95.626,613.363,96.439,610.565,100.241z"/>
					<polygon style="fill:#DBDBDB;" points="604,138.364 647.574,170.435 647.523,124.868 					"/>
					<polygon style="fill:#EBEBEB;" points="586.909,125.806 622.884,152.284 619.051,119.815 					"/>
				</g>
			</g>
			<g>
				<g>
					<polygon style="fill:#EBEBEB;" points="554.416,102.774 640.063,103.924 640.769,46.641 555.122,45.491 					"/>
					<polygon style="fill:#FFFFFF;" points="558.019,99.255 636.556,100.309 637.166,50.16 558.629,49.106 					"/>
					<path style="fill:#DBDBDB;" d="M565.558,64.836c-0.063,4.719,3.711,8.596,8.43,8.66c4.72,0.063,8.597-3.711,8.66-8.43
						c0.063-4.719-3.711-8.596-8.431-8.66C569.499,56.342,565.621,60.116,565.558,64.836z"/>
					<polygon style="fill:#DBDBDB;" points="582.403,99.66 636.502,100.386 609.945,63.359 					"/>
					<polygon style="fill:#EBEBEB;" points="561.197,99.393 605.861,99.992 583.85,75.817 					"/>
				</g>
			</g>
		</g>
	</g>
</g>

<g id="Plant">
	<g>
		<g>
			<g>
				<path style="fill:#FFC727;" d="M684.381,271.819c-12.794,17.328-26.134,37.436-29.382,59.165
					c-0.039,0.329,0.488,0.436,0.564,0.11c1.485-5.96,3.364-11.747,5.658-17.398c8.411-2.315,16.667-4.216,21.084-12.565
					c4.505-8.582,3.933-19.771,3.076-29.12C685.321,271.511,684.642,271.487,684.381,271.819z"/>
				<g>
					<path style="fill:#263238;" d="M661.347,313.534c5.747-12.897,13.126-25.848,22.504-36.453
						c0.063-0.071,0.161,0.031,0.103,0.103c-6.14,7.553-10.806,15.78-15.362,24.15c4.236-4.301,8.878-8.153,12.891-12.713
						c0.078-0.089,0.203,0.04,0.129,0.129c-3.985,4.781-8.337,9.977-13.526,13.516c-1.394,2.568-2.797,5.144-4.22,7.72
						c0.349-0.195,0.709-0.369,1.066-0.546c0.063-0.031,0.118,0.063,0.055,0.095c-0.396,0.2-0.787,0.411-1.196,0.585
						c-0.674,1.219-1.342,2.438-2.035,3.655C661.602,314.044,661.226,313.806,661.347,313.534z"/>
					<path style="fill:#263238;" d="M665.623,309.034c3.429-1.966,6.736-4.079,9.821-6.556c0.084-0.068,0.205,0.049,0.12,0.12
						c-3.03,2.565-6.261,4.862-9.8,6.677C665.605,309.357,665.466,309.124,665.623,309.034z"/>
				</g>
			</g>
			<g>
				<path style="fill:#FFC727;" d="M653.519,327.755c0.026,0.263,0.473,0.258,0.468-0.022c0.067-7.155,0.007-14.344,0.114-21.533
					c1.833-3.699,5.768-5.747,8.504-8.712c1.973-2.139,3.66-4.553,5.103-7.106c3.383-6.054,5.216-12.861,5.921-19.74
					c0.756-7.654-2.149-32.911-5.376-32.034c-1.673,0.455-7.088,12.965-8.524,17.1c-2.353,6.804-4.007,13.854-5.093,20.969
					C652.021,293.518,652.239,310.809,653.519,327.755z"/>
				<g>
					<path style="fill:#263238;" d="M653.467,296.886c0.011-0.009,0.021-0.019,0.032-0.028c0.392-9.054,2.432-18.197,4.341-26.979
						c2.057-9.461,4.462-18.368,9.33-26.806c0.091-0.157,0.322-0.019,0.241,0.141c-3.313,6.528-5.682,13.458-7.494,20.576
						c0.326-0.51,0.722-0.994,1.061-1.476c0.133-0.189,0.446-0.013,0.315,0.184c-0.477,0.713-0.908,1.544-1.521,2.148
						c-0.02,0.02-0.042,0.022-0.064,0.029c-1.676,6.761-2.879,13.678-3.908,20.578c0.077-0.087,0.152-0.182,0.229-0.267
						c0.053-0.057,0.142,0.016,0.105,0.081c-0.127,0.229-0.27,0.456-0.41,0.684c-0.518,3.502-0.999,6.997-1.483,10.462
						c6.235-5.329,11.56-11.611,14.564-19.352c0.014-0.035,0.072-0.021,0.059,0.016c-2.943,8.029-7.581,15.166-14.722,20.036
						c-0.13,0.934-0.261,1.867-0.394,2.796c-0.027,0.193-0.335,0.142-0.334-0.045c0.003-0.825,0.042-1.652,0.075-2.478
						C653.402,297.109,653.36,296.976,653.467,296.886z"/>
					<path style="fill:#263238;" d="M656.405,283.767c4.765-7.111,9.216-14.018,12.703-21.879c0.038-0.087,0.19-0.025,0.155,0.065
						c-2.938,7.81-7.053,15.724-12.62,21.998C656.53,284.079,656.308,283.911,656.405,283.767z"/>
					<path style="fill:#263238;" d="M662.737,260.132c1.974-3.492,4.056-6.891,5.914-10.453c0.052-0.099,0.189-0.012,0.147,0.086
						c-1.559,3.64-3.422,7.336-5.756,10.545C662.911,260.49,662.623,260.334,662.737,260.132z"/>
					<path style="fill:#263238;" d="M661.966,261.651c0.039,0,0.039,0.061,0,0.061C661.927,261.712,661.927,261.651,661.966,261.651
						z"/>
				</g>
			</g>
			<g>
				<path style="fill:#FFC727;" d="M648.676,307.061c-0.122,4.741-0.634,9.484-1.672,14.098c0.073,0.509,0.147,1.018,0.221,1.543
					c1.495-5.137,2.276-10.401,2.522-15.714c0.081-0.147,0.115-0.306,0.022-0.486c0,0,0,0-0.001-0.015
					c0.27-7.096-0.388-14.27-1.579-21.292c-2.216-13.151-7.057-25.771-16.229-35.628c-0.291-0.304-0.871-0.146-1.013,0.209
					c-3.701,9.41-2.41,20.639,0.743,30.027c1.716,5.057,4.164,9.913,7.273,14.261C642.109,298.487,646.12,302.23,648.676,307.061z"
					/>
				<g>
					<path style="fill:#263238;" d="M633.045,253.971c8.692,14.107,14.74,30.832,15.479,47.496c0.013,0.295-0.484,0.373-0.525,0.071
						c-0.206-1.497-0.435-2.981-0.675-4.459c-0.005-0.004-0.01-0.001-0.015-0.006c-3.596-3.444-7.287-7.078-9.863-11.382
						c-0.045-0.075,0.064-0.165,0.124-0.096c3.129,3.575,6.048,7.238,9.58,10.427c-0.622-3.684-1.36-7.31-2.233-10.883
						c-0.233-0.267-0.459-0.54-0.688-0.808c-0.151-0.177,0.101-0.435,0.258-0.258c0.069,0.077,0.139,0.154,0.209,0.231
						c-1.232-4.906-2.735-9.709-4.545-14.428c-2.213-2.64-4.686-4.921-6.298-8.1c-0.04-0.077,0.066-0.137,0.116-0.067
						c1.296,1.818,2.549,3.647,4.02,5.335c0.586,0.672,1.229,1.3,1.836,1.957c-1.978-5.038-4.325-9.977-7.116-14.833
						C632.584,253.949,632.914,253.758,633.045,253.971z"/>
					<path style="fill:#263238;" d="M634.802,271.372c2.81,3.781,6.011,7.389,8.623,11.297c0.075,0.112-0.088,0.227-0.181,0.14
						c-3.356-3.148-6.196-7.447-8.63-11.326C634.536,271.361,634.72,271.262,634.802,271.372z"/>
					<path style="fill:#263238;" d="M643.818,283.544l0.12,0.12c0.083,0.083-0.046,0.212-0.129,0.129l-0.12-0.12
						C643.606,283.59,643.735,283.461,643.818,283.544z"/>
				</g>
			</g>
			<g>
				<path style="fill:#FFC727;" d="M619.426,281.089c0.698,7.258,4.517,15.927,9.172,21.52c2.063,2.473,4.566,4.366,7.438,5.804
					c3.221,1.594,6.594,3.429,9.927,4.737c1.558,3.977,2.75,8.143,3.514,12.485c0.107-0.363,0.214-0.742,0.322-1.106
					c-2.139-18.375-14.03-34.081-29.239-44.163C620.014,280.002,619.366,280.469,619.426,281.089z"/>
				<g>
					<path style="fill:#263238;" d="M624.681,286.518c-0.107-0.095,0.038-0.287,0.155-0.201c8.06,5.971,15.323,14.677,19.38,23.884
						c0.111,0.251-0.235,0.472-0.378,0.221c-0.707-1.239-1.428-2.444-2.161-3.627c-0.004-0.001-0.006,0.002-0.01,0.002
						c-3.471-0.654-6.759-3.097-9.336-5.416c-0.07-0.063,0.033-0.165,0.103-0.103c1.345,1.186,2.789,2.271,4.393,3.085
						c1.415,0.719,2.939,1.172,4.412,1.747c-1.287-2.042-2.628-4-4.028-5.9c-3.736-1.273-7.293-3.567-10.433-5.865
						c-0.099-0.072-0.012-0.234,0.098-0.168c3.201,1.926,6.356,3.622,9.697,5.184c-2.105-2.788-4.383-5.428-6.846-7.982
						c-1.18-0.623-2.376-1.249-3.52-1.915c-0.093-0.054-0.032-0.213,0.075-0.178c0.911,0.303,1.839,0.78,2.701,1.327
						C627.609,289.225,626.195,287.855,624.681,286.518z"/>
					<path style="fill:#263238;" d="M625.005,292.863c0.21,0.133,0.4,0.254,0.585,0.418c0.056,0.049-0.015,0.121-0.073,0.096
						c-0.223-0.097-0.405-0.215-0.61-0.346C624.802,292.963,624.899,292.795,625.005,292.863z"/>
				</g>
			</g>
		</g>
		<g>
			<g>
				<polygon style="fill:#455A64;" points="673.536,365.427 631.859,365.427 635.223,327.474 635.962,319.103 669.433,319.103 
					670.171,327.474 				"/>
				<polygon style="fill:#263238;" points="670.171,327.474 635.223,327.474 635.962,319.103 669.433,319.103 				"/>
			</g>
			<rect x="633.968" y="313.251" style="fill:#455A64;" width="37.458" height="8.284"/>
		</g>
	</g>
</g>
<g id="Floor">
	<polygon style="fill:#263238;" points="38.315,365.427 122.486,365.184 206.657,365.096 375,364.928 543.343,365.095 
		627.514,365.182 711.685,365.427 627.514,365.672 543.343,365.76 375,365.926 206.657,365.759 122.486,365.67 	"/>
</g>
<g id="Shadow">
	<ellipse style="fill:#EBEBEB;" cx="375" cy="426.688" rx="324.28" ry="25.706"/>
</g>
<g id="Device">
	<g>
		<rect x="142.466" y="70.913" style="fill:#EBEBEB;" width="465.068" height="311.096"/>
		<rect x="145.846" y="74.707" style="fill:#263238;" width="458.309" height="303.507"/>
		<g>
			<rect x="81.893" y="405.337" style="fill:#DBDBDB;" width="586.214" height="21.351"/>
			<polygon style="fill:#EBEBEB;" points="81.893,405.337 142.466,382.009 607.534,382.009 668.107,405.337 			"/>
			<polygon style="fill:#263238;" points="147.875,397.063 186.964,382.009 563.036,382.009 602.125,397.063 			"/>
		</g>
		<g>
			<rect x="171.746" y="97.766" style="fill:#FFFFFF;" width="406.508" height="257.389"/>
			<rect x="171.402" y="107.671" style="fill:#FFC727;" width="399.635" height="64.955"/>
			<g>
				<rect x="171.402" y="97.766" style="fill:#455A64;" width="406.852" height="9.904"/>
				<g>
					<path style="fill:#C7C7C7;" d="M179.274,102.718c0,1.356-1.1,2.456-2.456,2.456c-1.356,0-2.456-1.1-2.456-2.456
						c0-1.357,1.1-2.456,2.456-2.456C178.175,100.262,179.274,101.362,179.274,102.718z"/>
					<path style="fill:#FFFFFF;" d="M189.305,102.718c0,1.356-1.1,2.456-2.456,2.456c-1.357,0-2.456-1.1-2.456-2.456
						c0-1.357,1.1-2.456,2.456-2.456C188.205,100.262,189.305,101.362,189.305,102.718z"/>
					<path style="fill:#FFC727;" d="M199.334,102.718c0,1.356-1.1,2.456-2.456,2.456c-1.356,0-2.456-1.1-2.456-2.456
						c0-1.357,1.1-2.456,2.456-2.456C198.235,100.262,199.334,101.362,199.334,102.718z"/>
				</g>
			</g>
			<g>
				<rect x="571.037" y="107.671" style="fill:#DBDBDB;" width="7.217" height="247.485"/>
				<path style="fill:#A6A6A6;" d="M574.641,193.471L574.641,193.471c-1.029,0-1.864-0.834-1.864-1.864v-80.623
					c0-1.03,0.834-1.864,1.864-1.864h0c1.03,0,1.864,0.834,1.864,1.864v80.623C576.505,192.636,575.671,193.471,574.641,193.471z"/>
			</g>
			<g>
				<g>
					<g>
						<rect x="453.05" y="119.745" style="fill:#FFFFFF;" width="97.159" height="12.968"/>
						<path style="fill:#C7C7C7;" d="M550.341,132.845h-97.424v-13.232h97.424V132.845z M453.182,132.581h96.895v-12.703h-96.895
							V132.581z"/>
					</g>
					<rect x="537.106" y="119.61" style="fill:#455A64;" width="13.238" height="13.239"/>
					<g>
						<g>
							<path style="fill:#FFFFFF;" d="M547.836,129.864l-1.198,0.907l-2.219-2.93l-0.812-1.072c0.162-0.063,0.319-0.151,0.466-0.263
								c0.281-0.215,0.487-0.493,0.615-0.797l0.862,1.137L547.836,129.864z"/>
							<path style="fill:#FFFFFF;" d="M545.478,122.965c-1.099-1.433-3.152-1.703-4.584-0.604c-1.432,1.099-1.703,3.152-0.604,4.584
								c0.987,1.288,2.744,1.636,4.129,0.897c0.157-0.085,0.309-0.18,0.453-0.292c0.267-0.206,0.494-0.444,0.678-0.703
								C546.358,125.707,546.371,124.132,545.478,122.965z M544.073,126.507c-0.146,0.112-0.303,0.2-0.466,0.263
								c-0.794,0.318-1.73,0.087-2.275-0.624c-0.657-0.857-0.496-2.085,0.361-2.742c0.857-0.657,2.084-0.494,2.742,0.363
								c0.44,0.576,0.512,1.319,0.253,1.943C544.56,126.014,544.354,126.292,544.073,126.507z"/>
						</g>
					</g>
					<rect x="455.761" y="122.294" style="fill:#C7C7C7;" width="0.696" height="7.87"/>
				</g>
				<g>
					<g>
						<rect x="224.407" y="119.745" style="fill:#FFFFFF;" width="223.769" height="12.968"/>
						<path style="fill:#C7C7C7;" d="M448.309,132.845H224.275v-13.232h224.034V132.845z M224.539,132.581h223.505v-12.703H224.539
							V132.581z"/>
					</g>
					<rect x="227.119" y="122.294" style="fill:#C7C7C7;" width="0.696" height="7.87"/>
				</g>
				<g>
					<polygon style="fill:#FFFFFF;" points="199.932,130.667 195.208,126.32 199.924,121.798 200.656,122.562 196.753,126.304 
						200.648,129.889 					"/>
				</g>
				<g>
					<polygon style="fill:#FFFFFF;" points="211.33,121.791 216.053,126.138 211.339,130.66 210.606,129.897 214.509,126.154 
						210.614,122.569 					"/>
				</g>
			</g>
			<g>
				<g>
					
						<rect x="323.57" y="186.926" transform="matrix(-1 -1.224647e-16 1.224647e-16 -1 750.1788 452.9084)" style="fill:#FFC727;" width="103.038" height="79.055"/>
					<path style="opacity:0.6;fill:#FFFFFF;" d="M333.826,204.215c-1.249,6.589,4.421,12.259,11.01,11.009
						c3.681-0.698,6.65-3.667,7.348-7.348c1.249-6.589-4.421-12.258-11.009-11.009C337.492,197.565,334.523,200.534,333.826,204.215
						z"/>
					<g>
						<polygon style="fill:#FFC727;" points="357.563,248.949 426.608,248.949 392.086,206.402 						"/>
						<polygon style="opacity:0.2;" points="357.563,248.949 426.608,248.949 392.086,206.402 						"/>
					</g>
					<g>
						<polygon style="fill:#FFC727;" points="323.57,248.987 384.8,248.987 354.185,221.281 						"/>
						<polygon style="opacity:0.1;" points="323.57,248.987 384.8,248.987 354.185,221.281 						"/>
					</g>
					<g>
						<rect x="323.57" y="248.949" style="fill:#FFC727;" width="103.038" height="17.033"/>
						<rect x="323.57" y="248.949" style="opacity:0.1;" width="103.038" height="17.033"/>
					</g>
				</g>
				<g>
					<rect x="193.444" y="276.921" style="fill:#A6A6A6;" width="54.489" height="4.584"/>
					<rect x="193.444" y="287.558" style="fill:#EBEBEB;" width="231.575" height="4.585"/>
					<rect x="193.444" y="297.644" style="fill:#EBEBEB;" width="231.575" height="4.585"/>
					<rect x="193.444" y="307.73" style="fill:#EBEBEB;" width="231.575" height="4.585"/>
					<rect x="193.444" y="317.816" style="fill:#EBEBEB;" width="231.575" height="4.585"/>
					<rect x="193.444" y="327.903" style="fill:#EBEBEB;" width="231.575" height="4.585"/>
				</g>
				<g>
					<rect x="440.768" y="187.615" style="fill:#A6A6A6;" width="54.49" height="4.585"/>
					<rect x="440.768" y="198.252" style="fill:#EBEBEB;" width="115.788" height="4.585"/>
					<rect x="440.768" y="208.338" style="fill:#EBEBEB;" width="115.788" height="4.585"/>
					<rect x="440.768" y="218.424" style="fill:#EBEBEB;" width="115.788" height="4.585"/>
					<rect x="440.768" y="228.511" style="fill:#EBEBEB;" width="115.788" height="4.585"/>
					<rect x="440.768" y="247.213" style="fill:#EBEBEB;" width="115.788" height="4.585"/>
					<rect x="440.768" y="257.299" style="fill:#EBEBEB;" width="115.788" height="4.585"/>
					<rect x="440.768" y="267.385" style="fill:#EBEBEB;" width="115.788" height="4.585"/>
					<rect x="440.768" y="277.471" style="fill:#EBEBEB;" width="115.788" height="4.585"/>
					<rect x="440.768" y="287.557" style="fill:#EBEBEB;" width="115.788" height="4.585"/>
					<rect x="440.768" y="307.73" style="fill:#EBEBEB;" width="115.788" height="4.585"/>
					<rect x="440.768" y="317.816" style="fill:#EBEBEB;" width="78.041" height="4.585"/>
					<rect x="521.136" y="314.927" style="fill:#263238;" width="0.499" height="10.364"/>
				</g>
				<g>
					<rect x="193.444" y="186.926" style="fill:#A6A6A6;" width="54.489" height="12.265"/>
					<rect x="193.444" y="207.649" style="fill:#EBEBEB;" width="115.614" height="4.585"/>
					<rect x="193.444" y="217.735" style="fill:#EBEBEB;" width="115.614" height="4.585"/>
					<rect x="193.444" y="227.822" style="fill:#EBEBEB;" width="115.614" height="4.585"/>
					<rect x="193.444" y="237.908" style="fill:#EBEBEB;" width="115.614" height="4.585"/>
					<rect x="193.444" y="251.324" style="fill:#EBEBEB;" width="115.614" height="4.585"/>
					<rect x="193.444" y="261.41" style="fill:#EBEBEB;" width="115.614" height="4.585"/>
				</g>
			</g>
		</g>
	</g>
</g>
<g id="Pen">
	<g>
		<path style="fill:#FFC727;" d="M403.607,440.474c0,0-23.031,1.609-22.854-14.184c0.178-15.793,23.167-13.666,23.167-13.666
			L403.607,440.474z"/>
		<g>
			<path style="fill:#FFC727;" d="M585.26,425.15l-0.08,6.91l-20.14,10.24l-0.01,0.02l-0.04-0.02l-91-1.03l-58.58-0.66l-6.45-0.07
				l-0.68-0.01l-4.78-0.05h-0.01l-0.81-0.01l0.32-27.86l0.92,0.01l4.67,0.05l0.68,0.01l6.45,0.07l149.61,1.7
				c0.01-0.02,0.01-0.02,0.01-0.02l0.02,0.01l19.89,10.7L585.26,425.15z"/>
			<polygon style="fill:#455A64;" points="589.72,428.647 585.198,430.976 585.191,430.983 585.246,426.277 587.957,427.707 			"/>
		</g>
		
			<rect x="388.946" y="423.339" transform="matrix(0.0113 -0.9999 0.9999 0.0113 -25.9008 826.9368)" style="fill:#263238;" width="32.522" height="6.453"/>
		
			<rect x="396.078" y="423.419" transform="matrix(0.0112 -0.9999 0.9999 0.0112 -18.9133 834.1655)" style="fill:#263238;" width="32.522" height="6.454"/>
		<polygon style="fill:#263238;" points="415.383,442.943 415.5,432.451 474.16,438.896 473.894,442.761 		"/>
	</g>
</g>
<g id="Character">
	<g id="Capa_4">
	</g>
	<g>
		<g>
			<path style="fill:#263238;" d="M261.638,246.255c5.671,6.873,10.168,45.882,2.983,61.111
				c-7.185,15.23-37.961,18.453-44.655-1.144c-3.486-10.204,5.301-21.605,9.395-48.615
				C232.411,237.483,253.712,236.649,261.638,246.255z"/>
			<path style="fill:#263238;" d="M258.202,313.009c4.978-2.835,8.633-7.309,10.18-12.853c1.633-5.852,1.402-12.355,1.107-18.372
				c-0.594-12.113-3.34-24.024-7.753-35.308c-0.017-0.043,0.057-0.074,0.075-0.032c5.052,11.792,7.827,24.512,8.259,37.337
				c0.205,6.087,0.371,12.857-1.991,18.593c-1.894,4.601-5.443,8.406-9.826,10.723C258.195,313.128,258.144,313.042,258.202,313.009
				z"/>
			<path style="fill:#263238;" d="M220.423,283.621c1.741-3.699,3.811-7.234,5.034-11.158c1.185-3.801,1.704-7.756,2.509-11.643
				c1.237-5.969,3.353-12.015,8.379-15.832c0.015-0.012,0.036,0.015,0.021,0.027c-5.124,4.102-6.908,10.527-8.108,16.709
				c-0.656,3.378-1.165,6.794-2.119,10.106c-0.867,3.008-2.197,5.808-3.599,8.598c-3.326,6.62-5.931,13.447-4.406,20.975
				c1.267,6.258,5.327,11.583,11.159,14.229c0.18,0.082,0.049,0.401-0.137,0.324c-5.265-2.212-9.149-6.828-10.88-12.236
				C216.115,296.969,217.471,289.894,220.423,283.621z"/>
			<path style="fill:#263238;" d="M222.631,283.931c1.505-3.535,2.748-7.076,3.458-10.848c0.672-3.568,1.019-7.185,1.62-10.764
				c1.026-6.114,2.922-12.411,7.771-16.689c0.061-0.054,0.15,0.031,0.091,0.089c-4.575,4.513-6.443,10.578-7.442,16.713
				c-1.076,6.608-1.617,13.123-4.13,19.416c-2.443,6.115-5.841,12.253-5.495,19.022c0.338,6.625,4.83,11.764,10.327,15.179
				c0.129,0.08,0.013,0.278-0.12,0.201c-4.857-2.793-9.09-7.224-10.319-12.739C216.876,296.705,220.021,290.062,222.631,283.931z"/>
		</g>
		<g>
			<g>
				<g>
					<path style="fill:#D3766A;" d="M463.615,396.353c-2.37,0.912-71.218,2.162-73.913,0.623c-0.294-0.172-0.213-3.211-1.226-11.071
						c-0.051-0.375-1.621-1.833-4.072-3.89c-9.207-7.718-30.843-23.986-30.843-23.986l34.358-29.851l33.295,32.728l8.66,8.508
						c0,0,28.129,15.189,30.914,17.195C463.554,388.624,465.985,395.441,463.615,396.353z"/>
				</g>
				<path style="fill:#FFC727;" d="M463.61,396.352c-2.36,0.915-71.217,2.162-73.908,0.629c-0.298-0.177-0.21-3.221-1.224-11.073
					c8.449,2.25,60.165,3.629,64.114,0.231c2.636-2.272-7.544-8.393-11.713-10.743c8.217,4.489,18.298,10.059,19.908,11.217
					C463.555,388.62,465.981,395.436,463.61,396.352z"/>
			</g>
			<g>
				<path style="fill:#455A64;" d="M421.689,359.08l-42.47,22.007c0,0-44.243-40.051-48.296-40.346
					c-3.936-0.287-63.577,40.09-93.542,40.216c-31.037,0.13-32.607-32.387-32.607-32.387l45.275-10.397
					c32.636-16.085,66.631-44.973,88.865-42.279C363.061,298.82,421.689,359.08,421.689,359.08z"/>
				<g>
					<g>
						<g>
							<path style="fill:#263238;" d="M411.314,353.475c-7.169,3.543-5.159,2.431-12.29,6.05
								c-3.49,1.771-21.051,10.632-24.031,12.826c-0.066,0.048-0.006,0.163,0.071,0.137c3.51-1.175,20.875-10.413,24.332-12.248
								c7.064-3.749,4.997-2.746,12.02-6.569C411.548,353.6,411.449,353.409,411.314,353.475z"/>
						</g>
					</g>
					<path style="fill:#263238;" d="M371.697,370.941c-8.303-7.322-35.507-31.155-36.611-32.041
						c-0.888-0.713-1.787-1.642-2.832-2.124c-0.892-0.412-1.768-0.185-2.62,0.212c-1.257,0.586-2.49,1.231-3.737,1.839
						c-2.454,1.198-4.907,2.396-7.361,3.593c-9.514,4.645-18.975,9.41-28.564,13.901c-9.22,4.319-15.803,8.384-25.433,11.705
						c-9.577,3.303-19.475,5.816-29.542,7.044c-1.241,0.151-2.485,0.282-3.729,0.398c-0.09,0.008-0.089,0.146,0.003,0.142
						c9.891-0.481,19.626-2.503,29.075-5.408c9.541-2.933,16.014-6.741,25.075-10.91c9.391-4.321,18.646-8.944,27.902-13.544
						c4.887-2.428,9.763-4.881,14.664-7.281c1.111-0.544,2.693-1.724,3.963-1.14c0.548,0.252,1.007,0.697,1.465,1.079
						c0.543,0.452,1.087,0.904,1.63,1.356c2.101,1.748,35.446,30.47,36.54,31.297C371.666,371.121,371.778,371.012,371.697,370.941z
						"/>
				</g>
			</g>
		</g>
		<g>
			<g>
				<path style="fill:#455A64;" d="M204.685,348.569c0,0-5.078,29.361,9.605,40.898c14.683,11.536,122.244,10.144,138.564,4.87
					c16.321-5.275,16.831-31.611-1.01-37.713c-16.968-5.804-89.164-8.625-90.945-9.336c-0.445-0.178,6.402-4.284,6.373-4.534
					l-16.427-5.02L204.685,348.569z"/>
				<g>
					<path style="fill:#263238;" d="M226.971,347.829c-0.021-0.126-0.216-0.085-0.215,0.035c0.014,3.319-1.215,6.811-3.394,9.327
						c-2.499,2.886-6.185,4.501-9.524,6.19c-0.321,0.162-0.078,0.665,0.255,0.565c2.035-0.611,4.041-1.499,5.897-2.541
						c1.69-0.949,3.251-2.139,4.435-3.687C226.608,354.864,227.562,351.385,226.971,347.829z"/>
					<path style="fill:#263238;" d="M259.717,344.19c-0.745-0.952-1.557-1.857-2.335-2.783c-1.839-2.188-3.686-4.385-5.613-6.496
						c-0.182-0.2-0.54,0.083-0.372,0.302c1.298,1.697,2.672,3.339,4.023,4.994c0.693,0.848,1.388,1.694,2.088,2.535
						c0.654,0.786,1.464,1.566,1.949,2.472c0.503,0.941-0.159,1.745-1.133,1.849c-0.873,0.093-1.678-0.352-2.348-0.865
						c-1.521-1.165-2.718-2.833-3.983-4.257c-0.774-0.871-1.548-1.741-2.334-2.602c-0.836-0.915-1.727-1.783-2.56-2.696
						c-0.054-0.059-0.157,0.023-0.109,0.089c0.729,0.998,1.401,2.043,2.131,3.044c0.729,1,1.469,1.991,2.222,2.973
						c0.713,0.93,1.451,1.841,2.21,2.734c0.645,0.759,1.378,1.498,2.242,2.006c1.397,0.821,3.82,0.999,4.563-0.805
						C260.724,345.794,260.265,344.891,259.717,344.19z"/>
					<path style="fill:#263238;" d="M350.622,394.435c-5.619,0.104-11.235,0.431-16.855,0.552c-5.574,0.119-11.15,0.15-16.725,0.098
						c-11.197-0.106-22.391-0.533-33.563-1.305c-11.289-0.78-23.464-1.905-34.677-3.458c-5.366-0.743-10.805-1.362-16.107-2.503
						c-4.784-1.029-9.123-3.016-12.705-6.49c-7.263-7.044-10.086-17.4-11.246-27.295c-0.155-1.328-0.283-2.658-0.391-3.99
						c-0.007-0.091-0.144-0.088-0.138,0.004c0.656,10.146,2.233,20.724,8.615,28.88c2.761,3.529,6.274,6.42,10.395,8.071
						c5.022,2.012,10.596,2.484,15.898,3.203c11.259,1.527,23.482,2.706,34.806,3.585c11.395,0.884,22.818,1.435,34.245,1.603
						c11.425,0.169,22.863,0.008,34.277-0.554c1.394-0.069,2.784-0.151,4.175-0.272
						C350.704,394.556,350.702,394.434,350.622,394.435z"/>
					<path style="fill:#263238;" d="M315.193,351.273c-3.537-0.518-7.067-1.026-10.624-1.397c-3.591-0.374-7.189-0.695-10.786-1
						c-7.116-0.603-14.251-1.143-21.385-1.478c-4.054-0.19-8.105-0.21-12.162-0.159c-0.131,0.002-0.119,0.188,0.005,0.199
						c7.134,0.647,14.271,1.096,21.417,1.571c7.131,0.474,14.251,1.1,21.365,1.778c4.035,0.385,8.073,0.682,12.112,1.011
						C315.432,351.822,315.49,351.316,315.193,351.273z"/>
					<path style="fill:#263238;" d="M268.111,342.394c-2.87,1.185-5.561,2.737-8.188,4.384c-2.594,1.627-5.241,3.324-7.581,5.303
						c-0.067,0.057,0.023,0.14,0.089,0.109c2.779-1.285,5.45-2.894,8.096-4.435c2.657-1.547,5.301-3.125,7.755-4.982
						C268.455,342.642,268.348,342.297,268.111,342.394z"/>
				</g>
			</g>
		</g>
		<g>
			<g>
				<g>
					<path style="fill:#D3766A;" d="M237.73,289.907c5.454,18.518,15.752,40.486,19.784,43.908
						c5.1,4.328,37.508,10.863,39.11,10.938c3.964,0.158,10.131-28.678,5.9-29.029c-6.442-0.534-29.736-0.386-31.215-1.73
						c-1.534-1.406-12.084-13.167-23.01-26.518C240.759,278.251,234.346,278.417,237.73,289.907z"/>
					<g>
						<path style="fill:#D3766A;" d="M293.369,343.417c0.484,0.209,7.351,3.156,11.544,4.1c3.128,0.704,12.188,2.49,13.305-0.877
							c0.765-2.296-4.439-3.973-8.092-5.241c-1.924-0.668-4.357-2.492-3.877-3.733c0.839-2.168,5.8-0.343,9.09,1.31
							c6.362,3.197,14.939,9.126,18.503,5.781c1.346-1.265-0.432-3.311-2.97-5.268c4.06,2.215,8.354,3.973,9.905,2.627
							c0.891-0.767,0.875-1.744,0.287-2.826c1.232,0.319,2.294,0.177,2.99-0.654c1.191-1.408,0.452-3.334-1.062-5.263
							c0.443-0.074,0.83-0.325,1.109-0.829c2.443-4.268-11.748-15.234-16.475-16.054c-13.909-2.426-28.319-0.941-28.319-0.941
							C294.183,320.18,293.357,343.408,293.369,343.417z"/>
						<g>
							<path style="fill:#263238;" d="M312.762,329.57c3.26,0.309,6.511,1.324,9.359,2.964c3.615,2.083,6.084,4.628,9.165,7.155
								c0.081,0.066-0.02,0.194-0.101,0.128c-1.468-1.201-7.519-5.683-9.074-6.691c-2.849-1.847-5.98-3.075-9.358-3.499
								C312.717,329.622,312.726,329.567,312.762,329.57z"/>
							<path style="fill:#263238;" d="M314.964,323.597c3.663,0.766,7.416,1.538,10.864,3.039c3.773,1.643,6.823,4.509,9.817,7.264
								c1.798,1.655,3.562,3.346,5.282,5.082c0.072,0.073-0.023,0.2-0.101,0.128c-3.041-2.849-6.167-5.611-9.378-8.269
								c-3.02-2.501-6.331-4.354-10.076-5.526c-2.11-0.66-4.266-1.158-6.419-1.654C314.914,323.652,314.922,323.589,314.964,323.597
								z"/>
							<path style="fill:#263238;" d="M318.504,318.276c3.545,0.506,6.636,0.935,9.85,2.623c4.255,2.234,8.471,6.178,9.952,7.577
								c1.635,1.546,3.217,3.144,4.775,4.767c0.064,0.066-0.05,0.178-0.115,0.113c-3.55-3.54-7.345-6.876-11.323-9.928
								c-1.901-1.458-3.946-2.705-6.208-3.52c-2.236-0.806-4.602-1.196-6.934-1.608
								C318.485,318.297,318.488,318.273,318.504,318.276z"/>
						</g>
					</g>
				</g>
				<g>
					<path style="fill:#FFC727;" d="M297.028,314.523l-7.92,31.668c0,0-27.016-5.966-32.186-10.905
						c-5.171-4.939-15.769-31.418-19.2-44.355c-3.431-12.937,3.212-13.016,9.801-5.128c6.589,7.888,22.959,26.982,23.833,27.365
						C272.229,313.55,297.028,314.523,297.028,314.523z"/>
					<path style="fill:#263238;" d="M285.722,332.542c0.965-3.735,1.961-7.465,2.787-11.237c0.47-2.143,0.951-4.284,1.401-6.432
						c0.017-0.081-0.119-0.121-0.144-0.041c-1.117,3.711-2.229,7.436-3.176,11.197c-0.942,3.742-1.916,7.478-2.81,11.233
						c-0.508,2.135-0.951,4.278-1.329,6.443c-0.008,0.043,0.061,0.064,0.076,0.021C283.768,340.05,284.75,336.303,285.722,332.542z"
						/>
					<path style="fill:#FFFFFF;" d="M285.82,314.3c0.01,0.71-0.03,1.42-0.13,2.13c-0.11,0.7-0.28,1.4-0.51,2.07
						c-0.46,1.36-1.18,2.61-2.05,3.73c-0.87,1.14-2.01,2.06-3.29,2.69c-1.28,0.63-2.68,0.99-4.08,1.18c-1.2,0.17-2.4,0.22-3.6,0.2
						h-0.24c-0.14,0-0.27-0.01-0.41-0.01c-1.41-0.04-2.82-0.15-4.23-0.27c-2.81-0.25-5.63-0.6-8.45-0.56
						c-1.4,0.03-2.82,0.16-4.16,0.56c-1.01,0.29-1.97,0.77-2.78,1.44c-0.02-0.04-0.04-0.08-0.06-0.12c0.82-0.68,1.78-1.15,2.8-1.45
						c1.36-0.41,2.79-0.55,4.2-0.58c2.84-0.05,5.65,0.29,8.46,0.54c1.41,0.12,2.82,0.23,4.23,0.26c0.21,0.01,0.41,0.01,0.62,0.01
						h0.25c1.12,0,2.23-0.05,3.34-0.21c1.39-0.19,2.77-0.55,4.02-1.17c1.26-0.62,2.37-1.52,3.21-2.64c0.85-1.11,1.56-2.34,2.01-3.67
						c0.46-1.32,0.65-2.73,0.63-4.13c0-0.09,0-0.17-0.01-0.26c0.07,0,0.15,0.01,0.22,0.01C285.82,314.13,285.82,314.22,285.82,314.3
						z M277.39,313.69v-0.05c-0.07-0.01-0.14-0.01-0.2-0.01c0.01,0.02,0.01,0.05,0.01,0.07c0.09,1.4,0.01,2.82-0.27,4.19
						c-0.29,1.38-0.79,2.7-1.45,3.94c-0.65,1.25-1.46,2.42-2.43,3.43c-0.29,0.3-0.59,0.59-0.91,0.86c-0.07,0.06-0.14,0.13-0.22,0.18
						c-0.69,0.57-1.43,1.06-2.22,1.48c-1.24,0.66-2.58,1.14-3.93,1.54c-2.7,0.79-5.51,1.3-8.1,2.49c-0.86,0.39-1.68,0.86-2.44,1.41
						c0.03,0.04,0.06,0.07,0.07,0.1c0.76-0.55,1.58-1.01,2.43-1.39c2.57-1.18,5.37-1.68,8.08-2.47c1.36-0.4,2.7-0.88,3.96-1.54
						c0.85-0.45,1.66-0.98,2.39-1.62c0.08-0.05,0.16-0.11,0.23-0.18c0.27-0.24,0.53-0.49,0.78-0.75c0.98-1.02,1.8-2.2,2.46-3.46
						c0.67-1.25,1.18-2.59,1.47-3.98C277.4,316.54,277.48,315.1,277.39,313.69z"/>
					<path style="opacity:0.1;" d="M289.9,343.04l-0.79,3.15c0,0-27.02-5.97-32.19-10.9c-5.17-4.94-15.77-31.42-19.2-44.36
						c-2.51-9.46,0.37-12.05,4.67-9.67C254.36,296.52,276.93,325.47,289.9,343.04z"/>
				</g>
			</g>
			<g>
				<path style="fill:#FFC727;" d="M202.332,351.672c2.004,0.759,60.81-13.086,60.81-13.086l-5.829-20.469
					c0,0,3.706-6.3,2.451-12.605c-1.677-8.422-16.38-22.871-17.548-23.735c-4.694-3.464-8.96-4.138-13.091-2.204
					C211.917,287.631,202.332,351.672,202.332,351.672z"/>
				<path style="fill:#FFFFFF;" d="M257.57,300.18c0.03,0.05,0.06,0.11,0.09,0.17c-0.14-0.02-0.29-0.03-0.43-0.04
					c-0.09-0.01-0.19-0.01-0.28-0.01c-0.41-0.03-0.83-0.02-1.24,0c-1.41,0.08-2.79,0.38-4.12,0.85c-1.33,0.45-2.6,1.08-3.74,1.89
					c-1.15,0.81-2.17,1.79-3.07,2.88c-0.89,1.08-1.67,2.26-2.4,3.47c-0.73,1.2-1.42,2.44-2.16,3.64c-0.75,1.21-1.55,2.38-2.51,3.44
					c-0.48,0.52-1,1.02-1.55,1.46c-0.56,0.45-1.16,0.84-1.79,1.17c-1.26,0.68-2.64,1.1-4.04,1.33c-1.41,0.24-2.87,0.13-4.24-0.28
					c-1.37-0.41-2.63-1.1-3.79-1.92c-0.98-0.69-1.89-1.48-2.75-2.3c-0.06-0.06-0.12-0.11-0.18-0.18c-0.1-0.09-0.2-0.18-0.3-0.28
					c-1.01-1-1.97-2.04-2.91-3.09c-1.27-1.41-2.5-2.85-3.81-4.22c0.02-0.06,0.04-0.12,0.05-0.18c1.34,1.39,2.6,2.85,3.89,4.28
					c0.94,1.05,1.9,2.09,2.9,3.08c0.15,0.14,0.3,0.29,0.45,0.42c0.06,0.07,0.12,0.12,0.18,0.18c0.82,0.77,1.68,1.49,2.59,2.13
					c1.15,0.81,2.39,1.49,3.74,1.89c1.34,0.4,2.77,0.5,4.14,0.26c1.39-0.23,2.74-0.65,3.98-1.31c1.23-0.66,2.33-1.55,3.28-2.59
					c0.95-1.04,1.75-2.2,2.49-3.4c0.74-1.2,1.43-2.43,2.17-3.64c0.73-1.21,1.52-2.39,2.43-3.48c0.9-1.1,1.94-2.09,3.1-2.9
					c1.17-0.82,2.45-1.46,3.8-1.92c1.34-0.46,2.74-0.77,4.16-0.84c0.36-0.02,0.72-0.02,1.08-0.01c0.09,0,0.19,0,0.28,0.01
					C257.23,300.15,257.4,300.16,257.57,300.18z M258.12,301.2c-0.19-0.2-0.39-0.4-0.59-0.6c-0.1-0.1-0.2-0.2-0.3-0.29
					c-0.05-0.06-0.11-0.11-0.17-0.17c-0.86-0.83-1.78-1.61-2.76-2.3c-1.15-0.82-2.42-1.51-3.79-1.92c-1.36-0.42-2.83-0.52-4.24-0.28
					c-1.4,0.23-2.78,0.65-4.04,1.32c-0.63,0.34-1.23,0.73-1.79,1.17c-0.55,0.45-1.07,0.94-1.55,1.47c-0.96,1.05-1.76,2.23-2.51,3.43
					c-0.74,1.21-1.43,2.44-2.16,3.65c-0.73,1.2-1.5,2.38-2.4,3.47c-0.9,1.08-1.92,2.06-3.06,2.87c-1.15,0.81-2.42,1.44-3.75,1.9
					c-1.33,0.46-2.71,0.77-4.12,0.84c-0.42,0.03-0.83,0.03-1.25,0c-0.09,0.01-0.18,0-0.27-0.01c-0.89-0.05-1.78-0.2-2.65-0.43
					c-1.36-0.37-2.65-0.93-3.91-1.56c-0.63-0.32-1.26-0.65-1.88-0.99c-0.02,0.05-0.03,0.09-0.04,0.14c0.61,0.33,1.23,0.67,1.85,0.98
					c1.26,0.64,2.57,1.21,3.94,1.58c0.94,0.25,1.9,0.41,2.87,0.46c0.09,0.01,0.18,0.01,0.27,0.01c0.36,0.01,0.72,0.01,1.08-0.01
					c1.42-0.08,2.83-0.39,4.17-0.85c1.34-0.46,2.63-1.09,3.79-1.91c1.16-0.82,2.2-1.81,3.11-2.9c0.9-1.09,1.69-2.28,2.42-3.49
					c0.74-1.21,1.43-2.44,2.17-3.64c0.75-1.19,1.55-2.36,2.49-3.4c0.95-1.03,2.05-1.92,3.29-2.58c1.23-0.67,2.59-1.08,3.97-1.32
					c1.38-0.23,2.8-0.13,4.14,0.27c1.35,0.4,2.6,1.08,3.74,1.88c0.91,0.64,1.77,1.37,2.59,2.14c0.06,0.05,0.12,0.11,0.17,0.17
					c0.16,0.14,0.31,0.28,0.46,0.43c0.33,0.32,0.65,0.65,0.96,0.98c-0.07-0.17-0.16-0.34-0.24-0.5L258.12,301.2z"/>
				<path style="fill:#263238;" d="M249.802,289.424c1.404,1.813,2.924,3.546,4.379,5.325c-0.656-1.304-1.305-2.613-2.008-3.892
					c-0.014-0.026,0.021-0.053,0.038-0.027c1.039,1.539,1.984,3.123,2.703,4.828c1.076,1.355,2.1,2.75,2.989,4.24
					c1.068,1.789,1.941,3.691,2.35,5.744c0.408,2.049,0.299,4.181-0.137,6.216c-0.506,2.36-1.386,4.612-2.307,6.835
					c-0.122,0.294-0.536,0.085-0.44-0.205c1.287-3.875,2.73-7.962,2.064-12.103c-0.658-4.09-3.025-7.659-5.327-11.006
					c-1.387-2.016-2.796-4.039-4.431-5.863C249.609,289.441,249.74,289.343,249.802,289.424z"/>
			</g>
			<g>
				<g>
					<g>
						<path style="fill:#D3766A;" d="M223.474,283.283c-11.736,9.028-42.668,45.527-36.202,54.187
							c6.512,8.722,50.781,5.776,63.711,2.049c3.846-1.108-6.024-25.579-10.128-26.791c-3.417-1.009-22.604,4.198-22.95,3.086
							c-0.391-1.256,3.858-9.347,10.713-24.133C236.523,274.633,228.658,279.296,223.474,283.283z"/>
						<g>
							<g>
								<path style="fill:#D3766A;" d="M259.755,308.485c8.865,0.227,11.106,1.646,18.69-2.135c4.976-2.481,8.696-0.369,5.315,4.323
									c-5.53,7.674-17.029,9.783-21.226,9.367L259.755,308.485z"/>
								<g>
									<path style="fill:#D3766A;" d="M235.358,313.018c0,0,10.631-3.796,20.102-4.489c6.55-0.479,20.915,0.068,32.08,16.178
										c2.648,3.821,3.712,11.144-2.88,6.474c-4.682-3.318-6.65-6.836-9.724-8.27c0,0,0.247,9.476-3.684,11.979
										c-1.757,1.119-6.624,4.06-10.741,5.81c0,0-0.622-0.794-1.267-1.912c0,0-3.894,1.992-10.321,0.289L235.358,313.018z"/>
								</g>
								<g>
									<path style="fill:#D3766A;" d="M261.784,309.07c2.751,2.069,8.509,6.55,11.943,11.854
										c3.815,5.891,9.577,18.268,5.199,21.04c-3.21,2.032-5.825-2.5-5.825-2.5s1.303,5.618-1.998,6.819
										c-3.008,1.095-4.821-2.533-4.821-2.533s0.204,3.544-2.896,4.04c-3.73,0.597-3.546-6.927-7.847-9.587
										C254.572,337.607,261.784,309.07,261.784,309.07z"/>
									<g>
										<g>
											<path style="fill:#263238;" d="M266.83,323.917c2.268,2.369,6.04,9.072,6.34,15.419c0.007,0.144-0.098,0.226-0.132,0.096
												c-1.814-6.917-4.829-12.982-6.263-15.479C266.756,323.919,266.805,323.891,266.83,323.917z"/>
										</g>
										<g>
											<path style="fill:#263238;" d="M260.995,327.941c1.747,2.245,5.326,9.328,5.409,15.769
												c0.002,0.144-0.109,0.219-0.138,0.088c-1.598-7.305-4.047-13.247-5.329-15.825
												C260.92,327.939,260.973,327.912,260.995,327.941z"/>
										</g>
									</g>
								</g>
							</g>
							<path style="fill:#263238;" d="M274.947,322.855c2.686,1.298,4.294,2.988,6.403,5.037c1.044,1.014,2.106,2.014,3.257,2.906
								c1.048,0.813,2.588,2.034,3.975,1.262c0.772-0.429,0.925-1.418,0.902-2.221c-0.026-0.902-0.622-2.659-1.02-3.47
								c-0.02-0.041,0.051-0.078,0.072-0.037c0.371,0.725,1.071,2.34,1.224,3.142c0.138,0.726,0.203,1.554-0.11,2.246
								c-0.673,1.489-2.543,1.389-3.772,0.746c-0.736-0.385-1.404-0.92-2.044-1.444c-0.62-0.506-1.215-1.042-1.796-1.591
								c-1.192-1.129-2.319-2.326-3.497-3.468c-1.296-1.256-2.224-1.918-3.65-3.021C274.84,322.905,274.894,322.83,274.947,322.855z
								"/>
							<path style="fill:#263238;" d="M279.216,333.769c-0.464-1.731-3.312-9.092-4.338-10.856
								c-0.026-0.045,0.036-0.088,0.067-0.046c1.856,2.451,4.476,8.578,5.007,10.49c0.524,1.889,1.092,4.287,0.768,6.243
								c-0.488,2.951-2.537,3.186-3.285,3.21c-0.892,0.029-1.734-0.296-2.443-0.826c-0.789-0.59-1.471-1.656-1.922-2.516
								c-0.024-0.045,0.039-0.091,0.067-0.046c0.83,1.331,2.339,2.76,3.977,2.814c0.711,0.024,1.467-0.176,1.988-0.682
								c0.612-0.595,0.799-1.48,0.865-2.299C280.116,337.402,279.693,335.547,279.216,333.769z"/>
						</g>
					</g>
					<g>
						<path style="fill:#FFC727;" d="M235.358,313.018l8.903,30.99c0,0-55.406,3.159-58.478-6.903
							c-3.071-10.062,23.699-43.024,34.802-52.076c12.867-10.49,13.559-6.084,9.37,4.409c-4.386,10.985-11.939,26.671-11.939,26.671
							L235.358,313.018z"/>
						<path style="fill:#FFFFFF;" d="M220.56,310.74c-0.03,0.07-0.06,0.13-0.09,0.2c-0.33,0.01-0.66,0.01-0.99-0.02
							c-1.43-0.1-2.81-0.5-4.12-1.05c-1.11-0.47-2.17-1.03-3.19-1.65c-0.08-0.04-0.15-0.09-0.22-0.13
							c-0.12-0.07-0.23-0.14-0.34-0.21c-1.2-0.75-2.36-1.56-3.51-2.39c-1.34-0.96-2.67-1.95-4.03-2.89c0.03-0.04,0.06-0.08,0.1-0.12
							c1.36,0.93,2.69,1.92,4.03,2.87c1.15,0.82,2.31,1.63,3.5,2.37c0.17,0.11,0.35,0.22,0.53,0.32c0.07,0.05,0.14,0.09,0.22,0.13
							c0.96,0.58,1.95,1.1,2.98,1.53c1.3,0.53,2.67,0.93,4.06,1.02C219.85,310.75,220.2,310.75,220.56,310.74z M228.72,286.32
							c-0.45,0.56-0.85,1.15-1.2,1.77c-0.71,1.23-1.24,2.56-1.7,3.89c-0.47,1.34-0.87,2.7-1.32,4.03c-0.45,1.34-0.96,2.66-1.6,3.91
							s-1.42,2.43-2.36,3.47c-0.95,1.04-2.05,1.93-3.25,2.66c-1.2,0.74-2.48,1.34-3.83,1.72c-0.41,0.12-0.82,0.21-1.23,0.27
							c-0.09,0.03-0.19,0.04-0.28,0.05c-0.88,0.15-1.77,0.19-2.66,0.15c-1.41-0.06-2.8-0.33-4.16-0.67
							c-1.37-0.35-2.73-0.77-4.09-1.13c-0.03,0.04-0.06,0.07-0.09,0.11c1.38,0.38,2.75,0.81,4.14,1.16
							c1.37,0.35,2.77,0.62,4.19,0.68c0.97,0.05,1.94-0.01,2.89-0.17c0.1-0.01,0.19-0.03,0.28-0.05c0.35-0.06,0.7-0.14,1.05-0.24
							c1.37-0.38,2.67-0.99,3.88-1.73c1.21-0.74,2.33-1.64,3.29-2.69c0.96-1.05,1.76-2.24,2.4-3.5c0.65-1.27,1.16-2.59,1.62-3.93
							c0.45-1.34,0.86-2.7,1.33-4.03c0.46-1.33,0.99-2.64,1.69-3.85c0.7-1.22,1.58-2.33,2.64-3.24c0.47-0.4,0.97-0.77,1.49-1.08
							c0.03-0.11,0.05-0.2,0.07-0.3c-0.6,0.35-1.17,0.76-1.7,1.21C229.67,285.26,229.17,285.77,228.72,286.32z M233.77,313.3
							l-0.07,0.02c0.08,0.61,0.12,1.24,0.12,1.86c0,0.39-0.01,0.77-0.04,1.16c0,0.04-0.01,0.09-0.01,0.14
							c-0.08,0.97-0.24,1.94-0.49,2.88c-0.36,1.36-0.87,2.69-1.59,3.9c-0.71,1.22-1.62,2.31-2.66,3.26
							c-2.08,1.91-4.59,3.26-6.92,4.86c-1.17,0.8-2.3,1.67-3.28,2.69c-0.67,0.69-1.28,1.46-1.79,2.28c-0.05,0.08-0.1,0.17-0.15,0.25
							c-0.18,0.31-0.35,0.62-0.5,0.94c-0.62,1.28-1.03,2.66-1.27,4.06c-0.16,0.88-0.24,1.79-0.24,2.69h0.18
							c0-0.89,0.08-1.78,0.23-2.66c0.23-1.39,0.63-2.75,1.24-4.02c0.18-0.37,0.38-0.74,0.6-1.09c0.04-0.08,0.09-0.16,0.16-0.24
							c0.47-0.75,1.03-1.46,1.65-2.1c0.97-1.02,2.09-1.88,3.25-2.68c2.32-1.6,4.84-2.95,6.93-4.89c1.04-0.96,1.96-2.06,2.67-3.29
							c0.72-1.22,1.24-2.56,1.59-3.93c0.23-0.91,0.39-1.85,0.46-2.79c0.01-0.05,0.01-0.1,0.02-0.14c0.03-0.43,0.04-0.85,0.04-1.28
							C233.89,314.55,233.85,313.93,233.77,313.3z M237.23,323.9c-0.13-1.42-0.65-2.78-1.31-4.03c-0.62-1.18-1.35-2.29-2.06-3.41
							c-0.03-0.04-0.06-0.08-0.08-0.12c-0.57-0.9-1.12-1.8-1.58-2.76l-0.06,0.01c0.47,1,1.04,1.95,1.63,2.89
							c0.02,0.04,0.05,0.08,0.07,0.12c0.69,1.09,1.4,2.18,1.99,3.32c0.65,1.25,1.15,2.59,1.28,3.99c0.14,1.4-0.11,2.82-0.65,4.11
							c-0.55,1.29-1.53,2.37-2.69,3.16c-1.15,0.8-2.46,1.36-3.79,1.83c-2.66,0.91-5.44,1.45-8.19,2.09
							c-1.38,0.32-2.76,0.65-4.11,1.06c-0.13,0.04-0.26,0.08-0.39,0.12c-0.08,0.02-0.17,0.05-0.25,0.07
							c-1.14,0.36-2.26,0.78-3.34,1.3c-1.28,0.62-2.49,1.4-3.51,2.4c-1.03,0.99-1.82,2.22-2.3,3.57c-0.03,0.09-0.06,0.18-0.09,0.27
							c0.08,0.01,0.15,0.01,0.22,0.02c0.02-0.07,0.04-0.15,0.07-0.22c0.46-1.32,1.24-2.52,2.24-3.5s2.19-1.75,3.45-2.36
							c1.01-0.49,2.05-0.89,3.11-1.23c0.08-0.04,0.16-0.06,0.24-0.08c0.2-0.07,0.4-0.13,0.6-0.19c1.35-0.4,2.72-0.74,4.09-1.06
							c2.75-0.65,5.53-1.19,8.21-2.12c1.34-0.47,2.65-1.05,3.82-1.86c1.17-0.8,2.17-1.9,2.73-3.22
							C237.13,326.76,237.37,325.32,237.23,323.9z"/>
						<g>
							<path style="fill:#263238;" d="M200.514,321.072c2.752-1.322,5.635-2.378,8.547-3.287c2.885-0.901,5.854-1.486,8.836-1.953
								c1.704-0.267,3.414-0.45,5.127-0.645c0.052-0.006,0.059,0.074,0.008,0.081c-3.001,0.422-5.979,1.108-8.909,1.873
								c-2.919,0.761-5.819,1.574-8.707,2.442c-1.634,0.491-3.244,1.059-4.86,1.605C200.48,321.212,200.444,321.105,200.514,321.072
								z"/>
							<path style="fill:#263238;" d="M235.229,312.911c-0.281,0.026-15.687,2.432-16.204,2.576c0.097-0.21,4.004-7.545,4.584-8.617
								c0.058-0.107,0.11-0.216,0.167-0.323c0.35-0.463,0.703-0.924,1.035-1.401c0.426-0.612,0.847-1.227,1.268-1.841
								c0.013-0.019-0.014-0.041-0.028-0.022c-0.449,0.593-0.898,1.185-1.344,1.781c-0.206,0.276-0.403,0.557-0.598,0.84
								c0.39-0.761,0.77-1.526,1.151-2.294c0.607-1.225,1.173-2.466,1.736-3.711c0.018-0.04-0.042-0.065-0.062-0.027
								c-1.15,2.137-2.367,4.237-3.523,6.371c-1.154,2.13-5.542,9.974-5.517,9.971c0.023,0.026,17.03-3.016,17.362-3.094
								C235.385,313.089,235.367,312.898,235.229,312.911z"/>
							<path style="fill:#263238;" d="M233.113,331.816c-0.973-3.456-1.918-6.92-3.02-10.34c-0.626-1.943-1.241-3.89-1.885-5.827
								c-0.024-0.073-0.153-0.042-0.135,0.034c0.839,3.507,1.689,7.022,2.688,10.49c0.994,3.45,1.96,6.909,2.999,10.348
								c0.591,1.955,1.238,3.885,1.948,5.802c0.014,0.038,0.079,0.022,0.071-0.018C235.057,338.767,234.092,335.295,233.113,331.816
								z"/>
							<path style="fill:#263238;" d="M244.876,344.572c-0.389-0.973-0.853-2.36-1.282-3.316c-0.113-0.253-0.297-0.234-0.215,0.025
								c0.274,0.87,0.462,1.829,0.728,2.72c-0.775,0.025-1.55,0.034-2.325,0.067c-0.896,0.038-1.792,0.081-2.688,0.116
								c-1.755,0.069-3.51,0.12-5.266,0.153c-3.556,0.067-7.113,0.058-10.669-0.026c-7.127-0.169-14.267-0.598-21.34-1.505
								c-1.978-0.253-3.954-0.545-5.917-0.898c-1.994-0.358-4.147-0.758-5.765-1.24c-0.051-0.015-0.077,0.072-0.026,0.092
								c1.656,0.636,3.215,1.118,4.946,1.492c1.767,0.383,3.545,0.716,5.331,0.991c3.558,0.547,7.144,0.905,10.733,1.165
								c7.118,0.516,14.261,0.723,21.396,0.646c2-0.021,3.999-0.067,5.997-0.135c1.008-0.034,2.017-0.069,3.025-0.123
								C242.547,344.741,244.942,344.738,244.876,344.572z"/>
						</g>
					</g>
				</g>
			</g>
			<g>
				<g>
					<g>
						<path style="fill:#D3766A;" d="M233.97,280.643c0.008,1.078,3.391,8.825,8.118,9.663c1.54,0.27,3.391-8.07,3.391-8.07
							l0.277-0.584l3.876-8.184l-9.925-9.976C239.707,263.491,233.973,280.186,233.97,280.643z"/>
						<path style="fill:#263238;" d="M249.633,273.464l-3.878,8.185c-2.249-1.478-6.919-5.362-7.994-12.452
							c0.98-2.897,1.805-5.304,1.921-5.658c0.016-0.027,0.02-0.047,0.02-0.047l1.275,1.191L249.633,273.464z"/>
					</g>
					<g>
						<path style="fill:#D3766A;" d="M265.563,264.277c-2.223,15.736-11.9,16.181-15.292,15.698
							c-3.08-0.439-13.511-2.324-12.926-18.205c0.586-15.882,8.605-19.823,15.702-19.192
							C260.145,243.208,267.787,248.54,265.563,264.277z"/>
						<g>
							<path style="fill:#263238;" d="M263.64,262.574c-0.356-0.12-0.664-0.29-1.003-0.446c-0.383-0.175-0.706-0.275-0.936-0.65
								c-0.123-0.201-0.039-0.536,0.145-0.675c0.428-0.322,0.95-0.224,1.42-0.032c0.51,0.209,0.849,0.5,1.112,0.982
								C264.633,262.222,264.109,262.733,263.64,262.574z"/>
							<path style="fill:#263238;" d="M253.05,260.466c0.374,0.035,0.724,0.006,1.098,0.003c0.421-0.004,0.757,0.037,1.12-0.211
								c0.195-0.133,0.254-0.474,0.143-0.675c-0.259-0.469-0.776-0.593-1.283-0.609c-0.55-0.018-0.979,0.109-1.416,0.443
								C252.288,259.739,252.557,260.419,253.05,260.466z"/>
							<g>
								<g>
									<path style="fill:#263238;" d="M255.113,263.224c0-0.042-0.092,0.035-0.099,0.078c-0.167,1.069-0.539,2.266-1.568,2.437
										c-0.032,0.005-0.039,0.059-0.002,0.061C254.648,265.858,255.126,264.264,255.113,263.224z"/>
									<path style="fill:#263238;" d="M254.373,261.934c-1.686-0.453-2.468,2.951-0.907,3.371
										C255.003,265.719,255.786,262.314,254.373,261.934z"/>
								</g>
								<path style="fill:#263238;" d="M253.663,261.961c-0.342,0.124-0.711,0.397-1.078,0.35c-0.424-0.054-0.656-0.483-0.848-0.888
									c-0.02-0.042-0.056-0.019-0.067,0.026c-0.16,0.65-0.063,1.377,0.614,1.635c0.618,0.235,1.208-0.237,1.522-0.855
									C253.865,262.114,253.801,261.91,253.663,261.961z"/>
							</g>
							<g>
								<g>
									<path style="fill:#263238;" d="M260.961,264.3c0.018-0.038,0.07,0.069,0.059,0.112c-0.284,1.045-0.433,2.289,0.436,2.865
										c0.027,0.018,0.011,0.07-0.023,0.057C260.31,266.894,260.525,265.245,260.961,264.3z"/>
									<path style="fill:#263238;" d="M262.163,263.425c1.724,0.275,1.048,3.702-0.549,3.448
										C260.043,266.622,260.718,263.195,262.163,263.425z"/>
								</g>
								<path style="fill:#263238;" d="M262.833,263.791c0.235,0.235,0.438,0.618,0.757,0.703c0.37,0.098,0.72-0.217,1.03-0.526
									c0.032-0.032,0.053,0.002,0.046,0.048c-0.111,0.659-0.462,1.298-1.116,1.3c-0.597,0.002-0.907-0.644-0.935-1.327
									C262.61,263.862,262.739,263.697,262.833,263.791z"/>
							</g>
							<path style="fill:#263238;" d="M252.747,272.433c0.182,0.314,0.337,0.719,0.707,0.856c0.354,0.131,0.825,0.086,1.193,0.049
								c0.037-0.004,0.06,0.04,0.03,0.066c-0.382,0.325-1.021,0.417-1.481,0.198c-0.449-0.214-0.569-0.687-0.563-1.15
								C252.634,272.388,252.721,272.388,252.747,272.433z"/>
							<g>
								<path style="fill:#263238;" d="M258.157,269.495c0,0-0.125,1.627-0.287,2.372c-0.016,0.07-0.203,0.064-0.459,0.023
									c-0.013,0.001-0.021,0.004-0.029-0.005c-1.36-0.081-2.586-0.823-3.151-2.071c-0.036-0.084,0.076-0.14,0.133-0.079
									c0.825,0.935,1.87,1.357,3.032,1.63c0.098-0.195,0.122-2.793,0.242-2.776c0.415,0.054,1.157,0.505,1.608,0.751
									c0.359-3.381,0.174-6.792,0.582-10.153c0.017-0.12,0.193-0.118,0.205-0.006c0.447,3.561,0.119,7.461-0.162,10.962
									C259.839,270.579,258.427,269.686,258.157,269.495z"/>
							</g>
							<g>
								<path style="fill:#263238;" d="M257.044,271.531c0,0-0.856,0.784-1.849,0.933c-0.366,0.057-0.744,0.033-1.11-0.145
									c-0.753-0.363-0.631-1.094-0.365-1.689c0.217-0.49,0.541-0.885,0.541-0.885S255.209,271.055,257.044,271.531z"/>
								<path style="fill:#FF9BBC;" d="M255.195,272.464c-0.366,0.057-0.744,0.033-1.11-0.145c-0.753-0.363-0.631-1.094-0.365-1.689
									C254.554,270.883,255.283,271.624,255.195,272.464z"/>
							</g>
						</g>
						<g>
							<path style="fill:#263238;" d="M237.155,262.615c3.849-0.59,5.047-4.082,5.047-4.082c4.727-0.55,7.964-3.141,8.298-3.403
								c-0.196,0.284-1.61,2.339-2.364,3.363c10.232,1.067,15.433-5.461,15.433-5.461c2.212,4.071,2.244,6.264,2.402,7.4
								c0,0,1.836-5.926-0.039-10.816c-2.294-5.987-7.675-6.577-7.675-6.577s-6.865-4.478-14.602,0.145
								C235.322,248.175,237.155,262.615,237.155,262.615z"/>
							<path style="fill:#263238;" d="M255.981,259.076c-1.802,0.411-3.694,0.488-5.515,0.35c-0.015-0.001-0.012-0.023,0.002-0.023
								c2.961,0.038,5.838-0.666,8.393-2.19c1.08-0.644,2.072-1.411,2.96-2.302c0.928-0.931,1.904-2.079,2.385-3.314
								c0.037-0.094,0.183-0.037,0.146,0.057c-0.51,1.305-0.993,2.504-1.903,3.592c-0.864,1.032-1.928,1.917-3.106,2.57
								C258.29,258.4,257.154,258.809,255.981,259.076"/>
						</g>
						<g>
							<g>
								<path style="fill:#D3766A;" d="M239.675,263.332c0,0-2.263-5.614-4.735-4.915c-2.471,0.699-1.548,8.292,0.806,9.845
									c2.354,1.553,3.834-0.597,3.834-0.597L239.675,263.332z"/>
								<path style="fill:#263238;" d="M235.259,260.587c-0.041-0.013-0.062,0.043-0.029,0.066c1.636,1.148,2.201,3.042,2.465,4.931
									c-0.383-0.792-1.029-1.327-2.072-0.895c-0.055,0.023-0.027,0.107,0.027,0.108c0.776,0.012,1.28,0.264,1.643,0.971
									c0.257,0.501,0.376,1.087,0.518,1.63c0.047,0.181,0.359,0.162,0.34-0.038c-0.001-0.015-0.004-0.03-0.005-0.045
									C238.722,265.023,237.677,261.389,235.259,260.587z"/>
							</g>
						</g>
					</g>
				</g>
			</g>
		</g>
		<g>
			<g>
				<g>
					<g>
						<rect x="256.401" y="351.21" style="fill:#C7C7C7;" width="65.429" height="2.93"/>
					</g>
					<g>
						<polygon style="fill:#A6A6A6;" points="321.83,351.21 321.83,354.14 277.355,354.14 279.597,351.21 						"/>
					</g>
				</g>
				<g>
					<polygon style="fill:#C7C7C7;" points="282.419,354.141 346.186,354.141 351.495,310.833 287.728,310.833 					"/>
					<path style="fill:#FFFFFF;" d="M313.076,332.487c-0.038,2.144,1.67,3.881,3.813,3.881c2.144,0,3.912-1.738,3.95-3.881
						c0.038-2.144-1.67-3.881-3.813-3.881C314.882,328.606,313.113,330.344,313.076,332.487z"/>
				</g>
			</g>
		</g>
	</g>
</g>
<g id="Speech_Bubble">
	<g>
		<g>
			<path style="fill:#FFFFFF;" d="M325.263,233.303c-1.371,13.103-13.11,22.62-26.214,21.249
				c-5.296-0.554-10.003-2.802-13.648-6.159l-11.936,1.752l5.972-10.319c-1.449-3.525-2.06-7.449-1.637-11.488
				c1.37-13.103,13.11-22.62,26.214-21.249C317.117,208.46,326.634,220.199,325.263,233.303z"/>
			<path style="fill:#263238;" d="M318.297,213.421c-2.63-2.566-5.844-4.538-9.297-5.701c-3.452-1.147-7.22-1.495-10.901-1.007
				c-3.728,0.504-7.286,1.839-10.288,3.86c-3.081,2.066-5.691,4.846-7.549,8.039c-3.73,6.38-4.34,14.455-1.618,21.164l-6.2,10.796
				c-0.048,0.083-0.044,0.187,0.011,0.266c0.054,0.079,0.15,0.121,0.244,0.106l12.515-1.921c3.324,2.942,7.368,4.911,11.713,5.698
				c1.121,0.205,2.245,0.322,3.325,0.347c0.338,0.029,0.676,0.041,1.013,0.041c0.596,0,1.189-0.036,1.77-0.071l0.584-0.034
				c2.719-0.326,4.72-0.804,6.485-1.547c2.186-0.86,4.143-1.95,5.803-3.23c0.671-0.452,1.27-0.999,1.849-1.527
				c0.23-0.209,0.459-0.419,0.716-0.645c0.213-0.24,0.434-0.475,0.654-0.71c0.529-0.564,1.075-1.147,1.518-1.792
				c2.656-3.383,4.339-7.608,4.867-12.219c0-0.001,0-0.002,0-0.002C326.299,226.028,323.534,218.398,318.297,213.421z
				 M325.015,233.275c-0.548,4.51-2.219,8.629-4.843,11.924c-0.433,0.62-0.968,1.183-1.485,1.728
				c-0.224,0.236-0.448,0.471-0.642,0.69c-0.239,0.205-0.473,0.415-0.706,0.626c-0.565,0.509-1.15,1.035-1.803,1.469
				c-1.58,1.212-3.494,2.243-5.696,3.067c-2.192,0.88-4.521,1.203-6.288,1.386l-0.579,0.024c-0.873,0.038-1.774,0.076-2.668-0.019
				c-1.045-0.041-2.122-0.172-3.198-0.389c-4.236-0.844-8.145-2.857-11.302-5.822l-0.118-0.11c-0.046-0.044-0.108-0.068-0.171-0.068
				c-0.012,0-0.023,0.001-0.035,0.002l-10.736,1.504l5.423-9.297c0.039-0.067,0.045-0.148,0.016-0.22l-0.086-0.213
				c-1.308-3.237-1.882-6.793-1.662-10.28c0.304-3.777,1.312-7.137,2.996-9.99c1.746-3.022,4.189-5.687,7.065-7.706
				c2.823-1.974,6.194-3.305,9.748-3.851c3.528-0.53,7.157-0.259,10.499,0.787c3.367,1.069,6.515,2.927,9.105,5.373
				C322.988,218.708,325.734,226.136,325.015,233.275z"/>
		</g>
		<g>
			<path style="fill:#263238;" d="M292.307,231.771c0,1.433-1.162,2.595-2.595,2.595c-1.433,0-2.595-1.162-2.595-2.595
				s1.162-2.595,2.595-2.595C291.145,229.176,292.307,230.338,292.307,231.771z"/>
			<circle style="fill:#263238;" cx="301.821" cy="231.771" r="2.595"/>
			<circle style="fill:#263238;" cx="313.93" cy="231.771" r="2.595"/>
		</g>
	</g>
</g>
</svg>